<svg height="512" viewBox="0 0 512 512" width="512" xmlns="http://www.w3.org/2000/svg" xmlns:xlink="http://www.w3.org/1999/xlink"><linearGradient id="a" gradientUnits="userSpaceOnUse" x1="14.113" x2="535.731" y1="509.886" y2="-11.732" data-name="New Gradient Swatch 1"><stop offset="0" stop-color="#003f8a"/><stop offset=".518" stop-color="#00d7df"/><stop offset="1" stop-color="#006df0"/></linearGradient><path d="m503.15 108.43.01-.01-48-96a8.011 8.011 0 0 0 -7.16-4.42h-384a8.011 8.011 0 0 0 -7.16 4.42l-48 96 .01.01a7.9 7.9 0 0 0 -.85 3.57v44a28.031 28.031 0 0 0 28 28h8a27.9 27.9 0 0 0 20-8.43 28.117 28.117 0 0 0 8 5.72v146.71h-40a8 8 0 0 0 -8 8v32a8 8 0 0 0 8 8v120a8 8 0 0 0 8 8h432a8 8 0 0 0 8-8v-120a8 8 0 0 0 8-8v-32a8 8 0 0 0 -8-8h-40v-146.71a28.117 28.117 0 0 0 8-5.72 27.9 27.9 0 0 0 20 8.43h8a28.031 28.031 0 0 0 28-28v-44a7.9 7.9 0 0 0 -.85-3.57zm-447.15 47.57a12.01 12.01 0 0 1 -12 12h-8a12.01 12.01 0 0 1 -12-12v-36h32zm408 332h-416v-112h416zm8-144v16h-432v-16zm-380-176h-8a12.01 12.01 0 0 1 -12-12v-36h32v36a12.01 12.01 0 0 1 -12 12zm12 13.29v146.71h-16v-144h4a27.75 27.75 0 0 0 12-2.71zm28 2.71h8a27.9 27.9 0 0 0 20-8.43 27.9 27.9 0 0 0 20 8.43h8a27.9 27.9 0 0 0 20-8.43 27.9 27.9 0 0 0 20 8.43h8a27.9 27.9 0 0 0 20-8.43 27.9 27.9 0 0 0 20 8.43h8a27.9 27.9 0 0 0 20-8.43 27.9 27.9 0 0 0 20 8.43h8a27.9 27.9 0 0 0 20-8.43 27.9 27.9 0 0 0 20 8.43h8a27.75 27.75 0 0 0 12-2.71v146.71h-272v-146.71a27.75 27.75 0 0 0 12 2.71zm-12-28v-36h32v36a12.01 12.01 0 0 1 -12 12h-8a12.01 12.01 0 0 1 -12-12zm48 0v-36h32v36a12.01 12.01 0 0 1 -12 12h-8a12.01 12.01 0 0 1 -12-12zm48 0v-36h32v36a12.01 12.01 0 0 1 -12 12h-8a12.01 12.01 0 0 1 -12-12zm48 0v-36h32v36a12.01 12.01 0 0 1 -12 12h-8a12.01 12.01 0 0 1 -12-12zm48 0v-36h32v36a12.01 12.01 0 0 1 -12 12h-8a12.01 12.01 0 0 1 -12-12zm48 0v-36h32v36a12.01 12.01 0 0 1 -12 12h-8a12.01 12.01 0 0 1 -12-12zm48 172v-146.71a27.75 27.75 0 0 0 12 2.71h4v144zm32-172a12.01 12.01 0 0 1 -12 12h-8a12.01 12.01 0 0 1 -12-12v-36h32zm-411.06-52 40-80h374.12l40 80zm459.06 52a12.01 12.01 0 0 1 -12 12h-8a12.01 12.01 0 0 1 -12-12v-36h32z" fill="url(#a)"/></svg>